<svg width="1064" height="168" viewBox="0 0 1064 168" fill="none" xmlns="http://www.w3.org/2000/svg">
<path d="M20.7305 32.4961H14.0508V44H10.2812V15.5625H19.6953C22.8984 15.5625 25.3594 16.2917 27.0781 17.75C28.8099 19.2083 29.6758 21.3307 29.6758 24.1172C29.6758 25.888 29.194 27.431 28.2305 28.7461C27.2799 30.0612 25.9518 31.0443 24.2461 31.6953L30.9258 43.7656V44H26.9023L20.7305 32.4961ZM14.0508 29.4297H19.8125C21.6745 29.4297 23.1523 28.9479 24.2461 27.9844C25.3529 27.0208 25.9062 25.7318 25.9062 24.1172C25.9062 22.3594 25.3789 21.0117 24.3242 20.0742C23.2826 19.1367 21.7721 18.6615 19.793 18.6484H14.0508V29.4297ZM51.0234 30.8555H38.6992V40.9336H53.0156V44H34.9492V15.5625H52.8203V18.6484H38.6992V27.7891H51.0234V30.8555ZM73.3867 36.5781H61.4727L58.7969 44H54.9297L65.7891 15.5625H69.0703L79.9492 44H76.1016L73.3867 36.5781ZM62.6055 33.4922H72.2734L67.4297 20.1914L62.6055 33.4922ZM83.7773 44V15.5625H91.8047C94.2786 15.5625 96.4661 16.1094 98.3672 17.2031C100.268 18.2969 101.733 19.8529 102.762 21.8711C103.803 23.8893 104.331 26.207 104.344 28.8242V30.6406C104.344 33.3229 103.823 35.6732 102.781 37.6914C101.753 39.7096 100.275 41.2591 98.3477 42.3398C96.4336 43.4206 94.2005 43.974 91.6484 44H83.7773ZM87.5273 18.6484V40.9336H91.4727C94.3633 40.9336 96.6094 40.0352 98.2109 38.2383C99.8255 36.4414 100.633 33.8828 100.633 30.5625V28.9023C100.633 25.6732 99.8711 23.1667 98.3477 21.3828C96.8372 19.5859 94.6888 18.6745 91.9023 18.6484H87.5273ZM114.051 44H110.301V15.5625H114.051V44ZM142.781 44H139.012L124.695 22.0859V44H120.926V15.5625H124.695L139.051 37.5742V15.5625H142.781V44ZM170.438 40.2695C169.474 41.6497 168.126 42.6849 166.395 43.375C164.676 44.0521 162.671 44.3906 160.379 44.3906C158.061 44.3906 156.004 43.8503 154.207 42.7695C152.41 41.6758 151.017 40.1263 150.027 38.1211C149.051 36.1159 148.549 33.7917 148.523 31.1484V28.668C148.523 24.3841 149.52 21.0638 151.512 18.707C153.517 16.3503 156.329 15.1719 159.949 15.1719C162.918 15.1719 165.307 15.9336 167.117 17.457C168.927 18.9674 170.034 21.1159 170.438 23.9023H166.688C165.984 20.1393 163.745 18.2578 159.969 18.2578C157.456 18.2578 155.548 19.1432 154.246 20.9141C152.957 22.6719 152.306 25.224 152.293 28.5703V30.8945C152.293 34.0846 153.022 36.6237 154.48 38.5117C155.939 40.3867 157.911 41.3242 160.398 41.3242C161.805 41.3242 163.035 41.168 164.09 40.8555C165.145 40.543 166.017 40.0156 166.707 39.2734V32.8867H160.125V29.8398H170.438V40.2695ZM195.008 31.3242C191.792 30.3997 189.448 29.2669 187.977 27.9258C186.518 26.5716 185.789 24.9049 185.789 22.9258C185.789 20.6862 186.681 18.8372 188.465 17.3789C190.262 15.9076 192.592 15.1719 195.457 15.1719C197.41 15.1719 199.148 15.5495 200.672 16.3047C202.208 17.0599 203.393 18.1016 204.227 19.4297C205.073 20.7578 205.496 22.2096 205.496 23.7852H201.727C201.727 22.0664 201.18 20.7188 200.086 19.7422C198.992 18.7526 197.449 18.2578 195.457 18.2578C193.608 18.2578 192.163 18.668 191.121 19.4883C190.092 20.2956 189.578 21.4219 189.578 22.8672C189.578 24.026 190.066 25.0091 191.043 25.8164C192.033 26.6107 193.706 27.3398 196.062 28.0039C198.432 28.668 200.281 29.4036 201.609 30.2109C202.951 31.0052 203.94 31.9362 204.578 33.0039C205.229 34.0716 205.555 35.3281 205.555 36.7734C205.555 39.0781 204.656 40.9271 202.859 42.3203C201.062 43.7005 198.66 44.3906 195.652 44.3906C193.699 44.3906 191.876 44.0195 190.184 43.2773C188.491 42.5221 187.182 41.4935 186.258 40.1914C185.346 38.8893 184.891 37.4115 184.891 35.7578H188.66C188.66 37.4766 189.292 38.8372 190.555 39.8398C191.831 40.8294 193.53 41.3242 195.652 41.3242C197.632 41.3242 199.148 40.9206 200.203 40.1133C201.258 39.306 201.785 38.2057 201.785 36.8125C201.785 35.4193 201.297 34.3451 200.32 33.5898C199.344 32.8216 197.573 32.0664 195.008 31.3242ZM230.027 18.6484H220.887V44H217.156V18.6484H208.035V15.5625H230.027V18.6484ZM255.574 30.6992C255.574 33.4857 255.105 35.9206 254.168 38.0039C253.23 40.0742 251.902 41.6562 250.184 42.75C248.465 43.8438 246.46 44.3906 244.168 44.3906C241.928 44.3906 239.943 43.8438 238.211 42.75C236.479 41.6432 235.132 40.0742 234.168 38.043C233.217 35.9987 232.729 33.6354 232.703 30.9531V28.9023C232.703 26.168 233.178 23.7526 234.129 21.6562C235.079 19.5599 236.421 17.9583 238.152 16.8516C239.897 15.7318 241.889 15.1719 244.129 15.1719C246.408 15.1719 248.413 15.7253 250.145 16.832C251.889 17.9258 253.23 19.5208 254.168 21.6172C255.105 23.7005 255.574 26.1289 255.574 28.9023V30.6992ZM251.844 28.8633C251.844 25.4909 251.167 22.9062 249.812 21.1094C248.458 19.2995 246.564 18.3945 244.129 18.3945C241.759 18.3945 239.891 19.2995 238.523 21.1094C237.169 22.9062 236.473 25.4062 236.434 28.6094V30.6992C236.434 33.9674 237.117 36.5391 238.484 38.4141C239.865 40.276 241.759 41.207 244.168 41.207C246.59 41.207 248.465 40.3281 249.793 38.5703C251.121 36.7995 251.805 34.2669 251.844 30.9727V28.8633ZM271.629 32.4961H264.949V44H261.18V15.5625H270.594C273.797 15.5625 276.258 16.2917 277.977 17.75C279.708 19.2083 280.574 21.3307 280.574 24.1172C280.574 25.888 280.092 27.431 279.129 28.7461C278.178 30.0612 276.85 31.0443 275.145 31.6953L281.824 43.7656V44H277.801L271.629 32.4961ZM264.949 29.4297H270.711C272.573 29.4297 274.051 28.9479 275.145 27.9844C276.251 27.0208 276.805 25.7318 276.805 24.1172C276.805 22.3594 276.277 21.0117 275.223 20.0742C274.181 19.1367 272.671 18.6615 270.691 18.6484H264.949V29.4297ZM289.871 44H286.121V15.5625H289.871V44ZM312.82 30.8555H300.496V40.9336H314.812V44H296.746V15.5625H314.617V18.6484H300.496V27.7891H312.82V30.8555ZM327.859 31.3242C324.643 30.3997 322.299 29.2669 320.828 27.9258C319.37 26.5716 318.641 24.9049 318.641 22.9258C318.641 20.6862 319.533 18.8372 321.316 17.3789C323.113 15.9076 325.444 15.1719 328.309 15.1719C330.262 15.1719 332 15.5495 333.523 16.3047C335.06 17.0599 336.245 18.1016 337.078 19.4297C337.924 20.7578 338.348 22.2096 338.348 23.7852H334.578C334.578 22.0664 334.031 20.7188 332.938 19.7422C331.844 18.7526 330.301 18.2578 328.309 18.2578C326.46 18.2578 325.014 18.668 323.973 19.4883C322.944 20.2956 322.43 21.4219 322.43 22.8672C322.43 24.026 322.918 25.0091 323.895 25.8164C324.884 26.6107 326.557 27.3398 328.914 28.0039C331.284 28.668 333.133 29.4036 334.461 30.2109C335.802 31.0052 336.792 31.9362 337.43 33.0039C338.081 34.0716 338.406 35.3281 338.406 36.7734C338.406 39.0781 337.508 40.9271 335.711 42.3203C333.914 43.7005 331.512 44.3906 328.504 44.3906C326.551 44.3906 324.728 44.0195 323.035 43.2773C321.342 42.5221 320.034 41.4935 319.109 40.1914C318.198 38.8893 317.742 37.4115 317.742 35.7578H321.512C321.512 37.4766 322.143 38.8372 323.406 39.8398C324.682 40.8294 326.382 41.3242 328.504 41.3242C330.483 41.3242 332 40.9206 333.055 40.1133C334.109 39.306 334.637 38.2057 334.637 36.8125C334.637 35.4193 334.148 34.3451 333.172 33.5898C332.195 32.8216 330.424 32.0664 327.859 31.3242Z" fill="black"/>
<path d="M14.4219 140.434L12.5859 151H7.76172L12.7031 122.562L22.5469 122.582C25.5156 122.582 27.8464 123.396 29.5391 125.023C31.2318 126.638 31.9674 128.78 31.7461 131.449C31.5117 134.21 30.3854 136.404 28.3672 138.031C26.349 139.646 23.7057 140.453 20.4375 140.453L14.4219 140.434ZM15.1055 136.469L20.6328 136.508C22.3776 136.508 23.8034 136.065 24.9102 135.18C26.0299 134.294 26.7005 133.057 26.9219 131.469C27.1042 130.023 26.8307 128.865 26.1016 127.992C25.3854 127.107 24.2982 126.632 22.8398 126.566L16.8242 126.547L15.1055 136.469ZM51.1211 138.305H39.793L38.2695 147.055H51.5117L50.8281 151H32.7617L37.6836 122.562H55.6328L54.9297 126.547H41.8242L40.457 134.398H51.8047L51.1211 138.305ZM76.8242 151H72.1562L63.2695 130.629L59.7344 151H54.9102L59.8516 122.562H64.5195L73.4062 143.012L76.9609 122.562H81.7656L76.8242 151ZM82.6445 151L87.5664 122.562L95.2617 122.582C97.6315 122.582 99.6693 123.174 101.375 124.359C103.094 125.531 104.337 127.159 105.105 129.242C105.874 131.312 106.108 133.598 105.809 136.098L105.594 137.641C105.203 140.258 104.337 142.582 102.996 144.613C101.668 146.632 99.9492 148.201 97.8398 149.32C95.7305 150.44 93.4128 151 90.8867 151H82.6445ZM91.707 126.547L88.1523 147.055L91.0039 147.074C93.582 147.074 95.7174 146.26 97.4102 144.633C99.1159 142.992 100.21 140.733 100.691 137.855C101.03 135.876 101.154 134.151 101.062 132.68C100.945 130.792 100.392 129.314 99.4023 128.246C98.4258 127.178 97.0651 126.618 95.3203 126.566L91.707 126.547ZM113.27 151H108.465L113.406 122.562H118.211L113.27 151ZM141.277 151H136.609L127.723 130.629L124.188 151H119.363L124.305 122.562H128.973L137.859 143.012L141.414 122.562H146.219L141.277 151ZM169.148 147.309C168.107 148.663 166.635 149.691 164.734 150.395C162.833 151.085 160.711 151.417 158.367 151.391C156.492 151.378 154.839 150.961 153.406 150.141C151.974 149.307 150.835 148.103 149.988 146.527C149.155 144.939 148.68 143.135 148.562 141.117C148.471 139.555 148.634 137.562 149.051 135.141C149.467 132.719 150.21 130.57 151.277 128.695C152.358 126.807 153.667 125.329 155.203 124.262C157.286 122.816 159.669 122.12 162.352 122.172C165.203 122.224 167.43 123.044 169.031 124.633C170.646 126.221 171.557 128.448 171.766 131.312L167.098 131.293C166.811 127.947 165.19 126.228 162.234 126.137C160.021 126.072 158.198 126.853 156.766 128.48C155.346 130.095 154.376 132.432 153.855 135.492C153.556 137.276 153.393 138.734 153.367 139.867C153.289 142.198 153.712 144.034 154.637 145.375C155.574 146.716 156.935 147.4 158.719 147.426C160.997 147.478 162.872 146.911 164.344 145.727L165.398 140.16H159.695L160.359 136.41H170.809L169.148 147.309Z" fill="#A71515"/>
</svg>
