<svg width="1064" height="168" viewBox="0 0 1064 168" fill="none" xmlns="http://www.w3.org/2000/svg">
<path d="M20.7305 32.4961H14.0508V44H10.2812V15.5625H19.6953C22.8984 15.5625 25.3594 16.2917 27.0781 17.75C28.8099 19.2083 29.6758 21.3307 29.6758 24.1172C29.6758 25.888 29.194 27.431 28.2305 28.7461C27.2799 30.0612 25.9518 31.0443 24.2461 31.6953L30.9258 43.7656V44H26.9023L20.7305 32.4961ZM14.0508 29.4297H19.8125C21.6745 29.4297 23.1523 28.9479 24.2461 27.9844C25.3529 27.0208 25.9062 25.7318 25.9062 24.1172C25.9062 22.3594 25.3789 21.0117 24.3242 20.0742C23.2826 19.1367 21.7721 18.6615 19.793 18.6484H14.0508V29.4297ZM51.0234 30.8555H38.6992V40.9336H53.0156V44H34.9492V15.5625H52.8203V18.6484H38.6992V27.7891H51.0234V30.8555ZM66.0625 31.3242C62.8464 30.3997 60.5026 29.2669 59.0312 27.9258C57.5729 26.5716 56.8438 24.9049 56.8438 22.9258C56.8438 20.6862 57.7357 18.8372 59.5195 17.3789C61.3164 15.9076 63.6471 15.1719 66.5117 15.1719C68.4648 15.1719 70.2031 15.5495 71.7266 16.3047C73.263 17.0599 74.4479 18.1016 75.2812 19.4297C76.1276 20.7578 76.5508 22.2096 76.5508 23.7852H72.7812C72.7812 22.0664 72.2344 20.7188 71.1406 19.7422C70.0469 18.7526 68.5039 18.2578 66.5117 18.2578C64.6628 18.2578 63.2174 18.668 62.1758 19.4883C61.1471 20.2956 60.6328 21.4219 60.6328 22.8672C60.6328 24.026 61.1211 25.0091 62.0977 25.8164C63.0872 26.6107 64.7604 27.3398 67.1172 28.0039C69.487 28.668 71.3359 29.4036 72.6641 30.2109C74.0052 31.0052 74.9948 31.9362 75.6328 33.0039C76.2839 34.0716 76.6094 35.3281 76.6094 36.7734C76.6094 39.0781 75.7109 40.9271 73.9141 42.3203C72.1172 43.7005 69.7148 44.3906 66.707 44.3906C64.7539 44.3906 62.931 44.0195 61.2383 43.2773C59.5456 42.5221 58.237 41.4935 57.3125 40.1914C56.401 38.8893 55.9453 37.4115 55.9453 35.7578H59.7148C59.7148 37.4766 60.3464 38.8372 61.6094 39.8398C62.8854 40.8294 64.5846 41.3242 66.707 41.3242C68.6862 41.3242 70.2031 40.9206 71.2578 40.1133C72.3125 39.306 72.8398 38.2057 72.8398 36.8125C72.8398 35.4193 72.3516 34.3451 71.375 33.5898C70.3984 32.8216 68.6276 32.0664 66.0625 31.3242ZM103.309 30.6992C103.309 33.4857 102.84 35.9206 101.902 38.0039C100.965 40.0742 99.6367 41.6562 97.918 42.75C96.1992 43.8438 94.194 44.3906 91.9023 44.3906C89.6628 44.3906 87.6771 43.8438 85.9453 42.75C84.2135 41.6432 82.8659 40.0742 81.9023 38.043C80.9518 35.9987 80.4635 33.6354 80.4375 30.9531V28.9023C80.4375 26.168 80.9128 23.7526 81.8633 21.6562C82.8138 19.5599 84.1549 17.9583 85.8867 16.8516C87.6315 15.7318 89.6237 15.1719 91.8633 15.1719C94.1419 15.1719 96.1471 15.7253 97.8789 16.832C99.6237 17.9258 100.965 19.5208 101.902 21.6172C102.84 23.7005 103.309 26.1289 103.309 28.9023V30.6992ZM99.5781 28.8633C99.5781 25.4909 98.901 22.9062 97.5469 21.1094C96.1927 19.2995 94.2982 18.3945 91.8633 18.3945C89.4935 18.3945 87.625 19.2995 86.2578 21.1094C84.9036 22.9062 84.207 25.4062 84.168 28.6094V30.6992C84.168 33.9674 84.8516 36.5391 86.2188 38.4141C87.599 40.276 89.4935 41.207 91.9023 41.207C94.3242 41.207 96.1992 40.3281 97.5273 38.5703C98.8555 36.7995 99.5391 34.2669 99.5781 30.9727V28.8633ZM128.953 15.5625V34.8984C128.94 37.5807 128.094 39.7747 126.414 41.4805C124.747 43.1862 122.482 44.1432 119.617 44.3516L118.621 44.3906C115.509 44.3906 113.029 43.5508 111.18 41.8711C109.331 40.1914 108.393 37.8802 108.367 34.9375V15.5625H112.078V34.8203C112.078 36.8776 112.645 38.4792 113.777 39.625C114.91 40.7578 116.525 41.3242 118.621 41.3242C120.743 41.3242 122.365 40.7578 123.484 39.625C124.617 38.4922 125.184 36.8971 125.184 34.8398V15.5625H128.953ZM145.301 32.4961H138.621V44H134.852V15.5625H144.266C147.469 15.5625 149.93 16.2917 151.648 17.75C153.38 19.2083 154.246 21.3307 154.246 24.1172C154.246 25.888 153.764 27.431 152.801 28.7461C151.85 30.0612 150.522 31.0443 148.816 31.6953L155.496 43.7656V44H151.473L145.301 32.4961ZM138.621 29.4297H144.383C146.245 29.4297 147.723 28.9479 148.816 27.9844C149.923 27.0208 150.477 25.7318 150.477 24.1172C150.477 22.3594 149.949 21.0117 148.895 20.0742C147.853 19.1367 146.342 18.6615 144.363 18.6484H138.621V29.4297ZM180.438 34.9766C180.086 37.9844 178.973 40.3086 177.098 41.9492C175.236 43.5768 172.755 44.3906 169.656 44.3906C166.297 44.3906 163.602 43.1862 161.57 40.7773C159.552 38.3685 158.543 35.1458 158.543 31.1094V28.375C158.543 25.7318 159.012 23.4076 159.949 21.4023C160.9 19.3971 162.241 17.8607 163.973 16.793C165.704 15.7122 167.71 15.1719 169.988 15.1719C173.009 15.1719 175.431 16.0182 177.254 17.7109C179.077 19.3906 180.138 21.7214 180.438 24.7031H176.668C176.342 22.4375 175.633 20.7969 174.539 19.7812C173.458 18.7656 171.941 18.2578 169.988 18.2578C167.592 18.2578 165.711 19.1432 164.344 20.9141C162.99 22.6849 162.312 25.2044 162.312 28.4727V31.2266C162.312 34.3125 162.957 36.7669 164.246 38.5898C165.535 40.4128 167.339 41.3242 169.656 41.3242C171.74 41.3242 173.335 40.8555 174.441 39.918C175.561 38.9674 176.303 37.3203 176.668 34.9766H180.438ZM201.648 30.8555H189.324V40.9336H203.641V44H185.574V15.5625H203.445V18.6484H189.324V27.7891H201.648V30.8555ZM216.688 31.3242C213.471 30.3997 211.128 29.2669 209.656 27.9258C208.198 26.5716 207.469 24.9049 207.469 22.9258C207.469 20.6862 208.361 18.8372 210.145 17.3789C211.941 15.9076 214.272 15.1719 217.137 15.1719C219.09 15.1719 220.828 15.5495 222.352 16.3047C223.888 17.0599 225.073 18.1016 225.906 19.4297C226.753 20.7578 227.176 22.2096 227.176 23.7852H223.406C223.406 22.0664 222.859 20.7188 221.766 19.7422C220.672 18.7526 219.129 18.2578 217.137 18.2578C215.288 18.2578 213.842 18.668 212.801 19.4883C211.772 20.2956 211.258 21.4219 211.258 22.8672C211.258 24.026 211.746 25.0091 212.723 25.8164C213.712 26.6107 215.385 27.3398 217.742 28.0039C220.112 28.668 221.961 29.4036 223.289 30.2109C224.63 31.0052 225.62 31.9362 226.258 33.0039C226.909 34.0716 227.234 35.3281 227.234 36.7734C227.234 39.0781 226.336 40.9271 224.539 42.3203C222.742 43.7005 220.34 44.3906 217.332 44.3906C215.379 44.3906 213.556 44.0195 211.863 43.2773C210.171 42.5221 208.862 41.4935 207.938 40.1914C207.026 38.8893 206.57 37.4115 206.57 35.7578H210.34C210.34 37.4766 210.971 38.8372 212.234 39.8398C213.51 40.8294 215.21 41.3242 217.332 41.3242C219.311 41.3242 220.828 40.9206 221.883 40.1133C222.938 39.306 223.465 38.2057 223.465 36.8125C223.465 35.4193 222.977 34.3451 222 33.5898C221.023 32.8216 219.253 32.0664 216.688 31.3242Z" fill="black"/>
<path d="M14.4219 140.434L12.5859 151H7.76172L12.7031 122.562L22.5469 122.582C25.5156 122.582 27.8464 123.396 29.5391 125.023C31.2318 126.638 31.9674 128.78 31.7461 131.449C31.5117 134.21 30.3854 136.404 28.3672 138.031C26.349 139.646 23.7057 140.453 20.4375 140.453L14.4219 140.434ZM15.1055 136.469L20.6328 136.508C22.3776 136.508 23.8034 136.065 24.9102 135.18C26.0299 134.294 26.7005 133.057 26.9219 131.469C27.1042 130.023 26.8307 128.865 26.1016 127.992C25.3854 127.107 24.2982 126.632 22.8398 126.566L16.8242 126.547L15.1055 136.469ZM51.1211 138.305H39.793L38.2695 147.055H51.5117L50.8281 151H32.7617L37.6836 122.562H55.6328L54.9297 126.547H41.8242L40.457 134.398H51.8047L51.1211 138.305ZM76.8242 151H72.1562L63.2695 130.629L59.7344 151H54.9102L59.8516 122.562H64.5195L73.4062 143.012L76.9609 122.562H81.7656L76.8242 151ZM82.6445 151L87.5664 122.562L95.2617 122.582C97.6315 122.582 99.6693 123.174 101.375 124.359C103.094 125.531 104.337 127.159 105.105 129.242C105.874 131.312 106.108 133.598 105.809 136.098L105.594 137.641C105.203 140.258 104.337 142.582 102.996 144.613C101.668 146.632 99.9492 148.201 97.8398 149.32C95.7305 150.44 93.4128 151 90.8867 151H82.6445ZM91.707 126.547L88.1523 147.055L91.0039 147.074C93.582 147.074 95.7174 146.26 97.4102 144.633C99.1159 142.992 100.21 140.733 100.691 137.855C101.03 135.876 101.154 134.151 101.062 132.68C100.945 130.792 100.392 129.314 99.4023 128.246C98.4258 127.178 97.0651 126.618 95.3203 126.566L91.707 126.547ZM113.27 151H108.465L113.406 122.562H118.211L113.27 151ZM141.277 151H136.609L127.723 130.629L124.188 151H119.363L124.305 122.562H128.973L137.859 143.012L141.414 122.562H146.219L141.277 151ZM169.148 147.309C168.107 148.663 166.635 149.691 164.734 150.395C162.833 151.085 160.711 151.417 158.367 151.391C156.492 151.378 154.839 150.961 153.406 150.141C151.974 149.307 150.835 148.103 149.988 146.527C149.155 144.939 148.68 143.135 148.562 141.117C148.471 139.555 148.634 137.562 149.051 135.141C149.467 132.719 150.21 130.57 151.277 128.695C152.358 126.807 153.667 125.329 155.203 124.262C157.286 122.816 159.669 122.12 162.352 122.172C165.203 122.224 167.43 123.044 169.031 124.633C170.646 126.221 171.557 128.448 171.766 131.312L167.098 131.293C166.811 127.947 165.19 126.228 162.234 126.137C160.021 126.072 158.198 126.853 156.766 128.48C155.346 130.095 154.376 132.432 153.855 135.492C153.556 137.276 153.393 138.734 153.367 139.867C153.289 142.198 153.712 144.034 154.637 145.375C155.574 146.716 156.935 147.4 158.719 147.426C160.997 147.478 162.872 146.911 164.344 145.727L165.398 140.16H159.695L160.359 136.41H170.809L169.148 147.309Z" fill="#A71515"/>
</svg>
