<svg width="1064" height="168" viewBox="0 0 1064 168" fill="none" xmlns="http://www.w3.org/2000/svg">
<path d="M26.0039 36.5781H14.0898L11.4141 44H7.54688L18.4062 15.5625H21.6875L32.5664 44H28.7188L26.0039 36.5781ZM15.2227 33.4922H24.8906L20.0469 20.1914L15.2227 33.4922ZM36.3945 44V15.5625H44.4219C46.8958 15.5625 49.0833 16.1094 50.9844 17.2031C52.8854 18.2969 54.3503 19.8529 55.3789 21.8711C56.4206 23.8893 56.9479 26.207 56.9609 28.8242V30.6406C56.9609 33.3229 56.4401 35.6732 55.3984 37.6914C54.3698 39.7096 52.8919 41.2591 50.9648 42.3398C49.0508 43.4206 46.8177 43.974 44.2656 44H36.3945ZM40.1445 18.6484V40.9336H44.0898C46.9805 40.9336 49.2266 40.0352 50.8281 38.2383C52.4427 36.4414 53.25 33.8828 53.25 30.5625V28.9023C53.25 25.6732 52.4883 23.1667 50.9648 21.3828C49.4544 19.5859 47.306 18.6745 44.5195 18.6484H40.1445ZM62.6445 44V15.5625H70.6719C73.1458 15.5625 75.3333 16.1094 77.2344 17.2031C79.1354 18.2969 80.6003 19.8529 81.6289 21.8711C82.6706 23.8893 83.1979 26.207 83.2109 28.8242V30.6406C83.2109 33.3229 82.6901 35.6732 81.6484 37.6914C80.6198 39.7096 79.1419 41.2591 77.2148 42.3398C75.3008 43.4206 73.0677 43.974 70.5156 44H62.6445ZM66.3945 18.6484V40.9336H70.3398C73.2305 40.9336 75.4766 40.0352 77.0781 38.2383C78.6927 36.4414 79.5 33.8828 79.5 30.5625V28.9023C79.5 25.6732 78.7383 23.1667 77.2148 21.3828C75.7044 19.5859 73.556 18.6745 70.7695 18.6484H66.3945ZM92.918 44H89.168V15.5625H92.918V44ZM121.648 44H117.879L103.562 22.0859V44H99.793V15.5625H103.562L117.918 37.5742V15.5625H121.648V44ZM149.305 40.2695C148.341 41.6497 146.993 42.6849 145.262 43.375C143.543 44.0521 141.538 44.3906 139.246 44.3906C136.928 44.3906 134.871 43.8503 133.074 42.7695C131.277 41.6758 129.884 40.1263 128.895 38.1211C127.918 36.1159 127.417 33.7917 127.391 31.1484V28.668C127.391 24.3841 128.387 21.0638 130.379 18.707C132.384 16.3503 135.197 15.1719 138.816 15.1719C141.785 15.1719 144.174 15.9336 145.984 17.457C147.794 18.9674 148.901 21.1159 149.305 23.9023H145.555C144.852 20.1393 142.612 18.2578 138.836 18.2578C136.323 18.2578 134.415 19.1432 133.113 20.9141C131.824 22.6719 131.173 25.224 131.16 28.5703V30.8945C131.16 34.0846 131.889 36.6237 133.348 38.5117C134.806 40.3867 136.779 41.3242 139.266 41.3242C140.672 41.3242 141.902 41.168 142.957 40.8555C144.012 40.543 144.884 40.0156 145.574 39.2734V32.8867H138.992V29.8398H149.305V40.2695ZM169.52 44H165.77V15.5625H169.52V44ZM198.25 44H194.48L180.164 22.0859V44H176.395V15.5625H180.164L194.52 37.5742V15.5625H198.25V44ZM223.973 18.6484H214.832V44H211.102V18.6484H201.98V15.5625H223.973V18.6484ZM238.621 32.4961H231.941V44H228.172V15.5625H237.586C240.789 15.5625 243.25 16.2917 244.969 17.75C246.701 19.2083 247.566 21.3307 247.566 24.1172C247.566 25.888 247.085 27.431 246.121 28.7461C245.171 30.0612 243.842 31.0443 242.137 31.6953L248.816 43.7656V44H244.793L238.621 32.4961ZM231.941 29.4297H237.703C239.565 29.4297 241.043 28.9479 242.137 27.9844C243.243 27.0208 243.797 25.7318 243.797 24.1172C243.797 22.3594 243.27 21.0117 242.215 20.0742C241.173 19.1367 239.663 18.6615 237.684 18.6484H231.941V29.4297ZM256.863 44H253.113V15.5625H256.863V44ZM284.734 40.2695C283.771 41.6497 282.423 42.6849 280.691 43.375C278.973 44.0521 276.967 44.3906 274.676 44.3906C272.358 44.3906 270.301 43.8503 268.504 42.7695C266.707 41.6758 265.314 40.1263 264.324 38.1211C263.348 36.1159 262.846 33.7917 262.82 31.1484V28.668C262.82 24.3841 263.816 21.0638 265.809 18.707C267.814 16.3503 270.626 15.1719 274.246 15.1719C277.215 15.1719 279.604 15.9336 281.414 17.457C283.224 18.9674 284.331 21.1159 284.734 23.9023H280.984C280.281 20.1393 278.042 18.2578 274.266 18.2578C271.753 18.2578 269.845 19.1432 268.543 20.9141C267.254 22.6719 266.603 25.224 266.59 28.5703V30.8945C266.59 34.0846 267.319 36.6237 268.777 38.5117C270.236 40.3867 272.208 41.3242 274.695 41.3242C276.102 41.3242 277.332 41.168 278.387 40.8555C279.441 40.543 280.314 40.0156 281.004 39.2734V32.8867H274.422V29.8398H284.734V40.2695ZM311.023 15.5625V34.8984C311.01 37.5807 310.164 39.7747 308.484 41.4805C306.818 43.1862 304.552 44.1432 301.688 44.3516L300.691 44.3906C297.579 44.3906 295.099 43.5508 293.25 41.8711C291.401 40.1914 290.464 37.8802 290.438 34.9375V15.5625H294.148V34.8203C294.148 36.8776 294.715 38.4792 295.848 39.625C296.98 40.7578 298.595 41.3242 300.691 41.3242C302.814 41.3242 304.435 40.7578 305.555 39.625C306.688 38.4922 307.254 36.8971 307.254 34.8398V15.5625H311.023ZM333.016 30.8555H320.691V40.9336H335.008V44H316.941V15.5625H334.812V18.6484H320.691V27.7891H333.016V30.8555ZM368.465 18.6484H359.324V44H355.594V18.6484H346.473V15.5625H368.465V18.6484ZM394.012 30.6992C394.012 33.4857 393.543 35.9206 392.605 38.0039C391.668 40.0742 390.34 41.6562 388.621 42.75C386.902 43.8438 384.897 44.3906 382.605 44.3906C380.366 44.3906 378.38 43.8438 376.648 42.75C374.917 41.6432 373.569 40.0742 372.605 38.043C371.655 35.9987 371.167 33.6354 371.141 30.9531V28.9023C371.141 26.168 371.616 23.7526 372.566 21.6562C373.517 19.5599 374.858 17.9583 376.59 16.8516C378.335 15.7318 380.327 15.1719 382.566 15.1719C384.845 15.1719 386.85 15.7253 388.582 16.832C390.327 17.9258 391.668 19.5208 392.605 21.6172C393.543 23.7005 394.012 26.1289 394.012 28.9023V30.6992ZM390.281 28.8633C390.281 25.4909 389.604 22.9062 388.25 21.1094C386.896 19.2995 385.001 18.3945 382.566 18.3945C380.197 18.3945 378.328 19.2995 376.961 21.1094C375.607 22.9062 374.91 25.4062 374.871 28.6094V30.6992C374.871 33.9674 375.555 36.5391 376.922 38.4141C378.302 40.276 380.197 41.207 382.605 41.207C385.027 41.207 386.902 40.3281 388.23 38.5703C389.559 36.7995 390.242 34.2669 390.281 30.9727V28.8633ZM417.938 31.3242C414.721 30.3997 412.378 29.2669 410.906 27.9258C409.448 26.5716 408.719 24.9049 408.719 22.9258C408.719 20.6862 409.611 18.8372 411.395 17.3789C413.191 15.9076 415.522 15.1719 418.387 15.1719C420.34 15.1719 422.078 15.5495 423.602 16.3047C425.138 17.0599 426.323 18.1016 427.156 19.4297C428.003 20.7578 428.426 22.2096 428.426 23.7852H424.656C424.656 22.0664 424.109 20.7188 423.016 19.7422C421.922 18.7526 420.379 18.2578 418.387 18.2578C416.538 18.2578 415.092 18.668 414.051 19.4883C413.022 20.2956 412.508 21.4219 412.508 22.8672C412.508 24.026 412.996 25.0091 413.973 25.8164C414.962 26.6107 416.635 27.3398 418.992 28.0039C421.362 28.668 423.211 29.4036 424.539 30.2109C425.88 31.0052 426.87 31.9362 427.508 33.0039C428.159 34.0716 428.484 35.3281 428.484 36.7734C428.484 39.0781 427.586 40.9271 425.789 42.3203C423.992 43.7005 421.59 44.3906 418.582 44.3906C416.629 44.3906 414.806 44.0195 413.113 43.2773C411.421 42.5221 410.112 41.4935 409.188 40.1914C408.276 38.8893 407.82 37.4115 407.82 35.7578H411.59C411.59 37.4766 412.221 38.8372 413.484 39.8398C414.76 40.8294 416.46 41.3242 418.582 41.3242C420.561 41.3242 422.078 40.9206 423.133 40.1133C424.188 39.306 424.715 38.2057 424.715 36.8125C424.715 35.4193 424.227 34.3451 423.25 33.5898C422.273 32.8216 420.503 32.0664 417.938 31.3242ZM452.957 18.6484H443.816V44H440.086V18.6484H430.965V15.5625H452.957V18.6484ZM478.504 30.6992C478.504 33.4857 478.035 35.9206 477.098 38.0039C476.16 40.0742 474.832 41.6562 473.113 42.75C471.395 43.8438 469.389 44.3906 467.098 44.3906C464.858 44.3906 462.872 43.8438 461.141 42.75C459.409 41.6432 458.061 40.0742 457.098 38.043C456.147 35.9987 455.659 33.6354 455.633 30.9531V28.9023C455.633 26.168 456.108 23.7526 457.059 21.6562C458.009 19.5599 459.35 17.9583 461.082 16.8516C462.827 15.7318 464.819 15.1719 467.059 15.1719C469.337 15.1719 471.342 15.7253 473.074 16.832C474.819 17.9258 476.16 19.5208 477.098 21.6172C478.035 23.7005 478.504 26.1289 478.504 28.9023V30.6992ZM474.773 28.8633C474.773 25.4909 474.096 22.9062 472.742 21.1094C471.388 19.2995 469.493 18.3945 467.059 18.3945C464.689 18.3945 462.82 19.2995 461.453 21.1094C460.099 22.9062 459.402 25.4062 459.363 28.6094V30.6992C459.363 33.9674 460.047 36.5391 461.414 38.4141C462.794 40.276 464.689 41.207 467.098 41.207C469.52 41.207 471.395 40.3281 472.723 38.5703C474.051 36.7995 474.734 34.2669 474.773 30.9727V28.8633ZM494.559 32.4961H487.879V44H484.109V15.5625H493.523C496.727 15.5625 499.188 16.2917 500.906 17.75C502.638 19.2083 503.504 21.3307 503.504 24.1172C503.504 25.888 503.022 27.431 502.059 28.7461C501.108 30.0612 499.78 31.0443 498.074 31.6953L504.754 43.7656V44H500.73L494.559 32.4961ZM487.879 29.4297H493.641C495.503 29.4297 496.98 28.9479 498.074 27.9844C499.181 27.0208 499.734 25.7318 499.734 24.1172C499.734 22.3594 499.207 21.0117 498.152 20.0742C497.111 19.1367 495.6 18.6615 493.621 18.6484H487.879V29.4297ZM512.801 44H509.051V15.5625H512.801V44ZM535.75 30.8555H523.426V40.9336H537.742V44H519.676V15.5625H537.547V18.6484H523.426V27.7891H535.75V30.8555ZM550.789 31.3242C547.573 30.3997 545.229 29.2669 543.758 27.9258C542.299 26.5716 541.57 24.9049 541.57 22.9258C541.57 20.6862 542.462 18.8372 544.246 17.3789C546.043 15.9076 548.374 15.1719 551.238 15.1719C553.191 15.1719 554.93 15.5495 556.453 16.3047C557.99 17.0599 559.174 18.1016 560.008 19.4297C560.854 20.7578 561.277 22.2096 561.277 23.7852H557.508C557.508 22.0664 556.961 20.7188 555.867 19.7422C554.773 18.7526 553.23 18.2578 551.238 18.2578C549.389 18.2578 547.944 18.668 546.902 19.4883C545.874 20.2956 545.359 21.4219 545.359 22.8672C545.359 24.026 545.848 25.0091 546.824 25.8164C547.814 26.6107 549.487 27.3398 551.844 28.0039C554.214 28.668 556.062 29.4036 557.391 30.2109C558.732 31.0052 559.721 31.9362 560.359 33.0039C561.01 34.0716 561.336 35.3281 561.336 36.7734C561.336 39.0781 560.438 40.9271 558.641 42.3203C556.844 43.7005 554.441 44.3906 551.434 44.3906C549.48 44.3906 547.658 44.0195 545.965 43.2773C544.272 42.5221 542.964 41.4935 542.039 40.1914C541.128 38.8893 540.672 37.4115 540.672 35.7578H544.441C544.441 37.4766 545.073 38.8372 546.336 39.8398C547.612 40.8294 549.311 41.3242 551.434 41.3242C553.413 41.3242 554.93 40.9206 555.984 40.1133C557.039 39.306 557.566 38.2057 557.566 36.8125C557.566 35.4193 557.078 34.3451 556.102 33.5898C555.125 32.8216 553.354 32.0664 550.789 31.3242Z" fill="black"/>
<path d="M14.4219 140.434L12.5859 151H7.76172L12.7031 122.562L22.5469 122.582C25.5156 122.582 27.8464 123.396 29.5391 125.023C31.2318 126.638 31.9674 128.78 31.7461 131.449C31.5117 134.21 30.3854 136.404 28.3672 138.031C26.349 139.646 23.7057 140.453 20.4375 140.453L14.4219 140.434ZM15.1055 136.469L20.6328 136.508C22.3776 136.508 23.8034 136.065 24.9102 135.18C26.0299 134.294 26.7005 133.057 26.9219 131.469C27.1042 130.023 26.8307 128.865 26.1016 127.992C25.3854 127.107 24.2982 126.632 22.8398 126.566L16.8242 126.547L15.1055 136.469ZM51.1211 138.305H39.793L38.2695 147.055H51.5117L50.8281 151H32.7617L37.6836 122.562H55.6328L54.9297 126.547H41.8242L40.457 134.398H51.8047L51.1211 138.305ZM76.8242 151H72.1562L63.2695 130.629L59.7344 151H54.9102L59.8516 122.562H64.5195L73.4062 143.012L76.9609 122.562H81.7656L76.8242 151ZM82.6445 151L87.5664 122.562L95.2617 122.582C97.6315 122.582 99.6693 123.174 101.375 124.359C103.094 125.531 104.337 127.159 105.105 129.242C105.874 131.312 106.108 133.598 105.809 136.098L105.594 137.641C105.203 140.258 104.337 142.582 102.996 144.613C101.668 146.632 99.9492 148.201 97.8398 149.32C95.7305 150.44 93.4128 151 90.8867 151H82.6445ZM91.707 126.547L88.1523 147.055L91.0039 147.074C93.582 147.074 95.7174 146.26 97.4102 144.633C99.1159 142.992 100.21 140.733 100.691 137.855C101.03 135.876 101.154 134.151 101.062 132.68C100.945 130.792 100.392 129.314 99.4023 128.246C98.4258 127.178 97.0651 126.618 95.3203 126.566L91.707 126.547ZM113.27 151H108.465L113.406 122.562H118.211L113.27 151ZM141.277 151H136.609L127.723 130.629L124.188 151H119.363L124.305 122.562H128.973L137.859 143.012L141.414 122.562H146.219L141.277 151ZM169.148 147.309C168.107 148.663 166.635 149.691 164.734 150.395C162.833 151.085 160.711 151.417 158.367 151.391C156.492 151.378 154.839 150.961 153.406 150.141C151.974 149.307 150.835 148.103 149.988 146.527C149.155 144.939 148.68 143.135 148.562 141.117C148.471 139.555 148.634 137.562 149.051 135.141C149.467 132.719 150.21 130.57 151.277 128.695C152.358 126.807 153.667 125.329 155.203 124.262C157.286 122.816 159.669 122.12 162.352 122.172C165.203 122.224 167.43 123.044 169.031 124.633C170.646 126.221 171.557 128.448 171.766 131.312L167.098 131.293C166.811 127.947 165.19 126.228 162.234 126.137C160.021 126.072 158.198 126.853 156.766 128.48C155.346 130.095 154.376 132.432 153.855 135.492C153.556 137.276 153.393 138.734 153.367 139.867C153.289 142.198 153.712 144.034 154.637 145.375C155.574 146.716 156.935 147.4 158.719 147.426C160.997 147.478 162.872 146.911 164.344 145.727L165.398 140.16H159.695L160.359 136.41H170.809L169.148 147.309Z" fill="#A71515"/>
</svg>
