<svg width="15" height="15" viewBox="0 0 15 15" fill="none" xmlns="http://www.w3.org/2000/svg">
<path fill-rule="evenodd" clip-rule="evenodd" d="M8 14.5C4.13401 14.5 1 11.366 1 7.5C1 3.63401 4.13401 0.5 8 0.5C11.866 0.5 15 3.63401 15 7.5C15 11.366 11.866 14.5 8 14.5ZM8 1.43333C4.64947 1.43333 1.93333 4.14947 1.93333 7.5C1.93333 10.8505 4.64947 13.5667 8 13.5667C11.3505 13.5667 14.0667 10.8505 14.0667 7.5C14.0667 4.14947 11.3505 1.43333 8 1.43333Z" fill="#1C1D1E"/>
<path fill-rule="evenodd" clip-rule="evenodd" d="M9.98009 3.65341C10.5052 4.17852 10.8002 4.89071 10.8002 5.63331C10.8003 6.2788 10.5774 6.90451 10.1692 7.40454C9.76106 7.90457 9.19264 8.24821 8.5602 8.37731V8.99331C8.5602 9.14183 8.5012 9.28427 8.39617 9.38929C8.29115 9.49431 8.14872 9.55331 8.0002 9.55331C7.85167 9.55331 7.70924 9.49431 7.60422 9.38929C7.4992 9.28427 7.4402 9.14183 7.4402 8.99331V7.87331C7.4402 7.72479 7.4992 7.58235 7.60422 7.47733C7.70924 7.37231 7.85167 7.31331 8.0002 7.31331C8.33247 7.31331 8.65728 7.21478 8.93355 7.03018C9.20983 6.84558 9.42516 6.5832 9.55231 6.27622C9.67947 5.96924 9.71274 5.63145 9.64791 5.30556C9.58309 4.97967 9.42309 4.68033 9.18813 4.44537C8.95318 4.21042 8.65384 4.05042 8.32795 3.98559C8.00206 3.92077 7.66427 3.95404 7.35729 4.0812C7.05031 4.20835 6.78793 4.42368 6.60333 4.69995C6.41873 4.97623 6.3202 5.30104 6.3202 5.63331C6.3202 5.78183 6.2612 5.92427 6.15618 6.02929C6.05115 6.13431 5.90872 6.19331 5.7602 6.19331C5.61167 6.19331 5.46924 6.13431 5.36422 6.02929C5.2592 5.92427 5.2002 5.78183 5.2002 5.63331C5.2002 4.89071 5.49519 4.17852 6.0203 3.65341C6.5454 3.12831 7.25759 2.83331 8.0002 2.83331C8.7428 2.83331 9.45499 3.12831 9.98009 3.65341ZM8.68474 11.2059C8.68474 11.6183 8.35045 11.9526 7.93807 11.9526C7.5257 11.9526 7.19141 11.6183 7.19141 11.2059C7.19141 10.7936 7.5257 10.4593 7.93807 10.4593C8.35045 10.4593 8.68474 10.7936 8.68474 11.2059Z" fill="#1C1D1E"/>
</svg>
